<svg width="307" height="160" viewBox="0 0 307 160" fill="none" xmlns="http://www.w3.org/2000/svg">
<rect width="52" height="52" rx="8" transform="matrix(-1 0 0 1 100.624 54)" fill="#C4FF62" fill-opacity="0.25"/>
<rect width="52" height="52" rx="8" transform="matrix(-1 0 0 1 156.624 54)" fill="#C4FF62" fill-opacity="0.5"/>
<rect width="52" height="52" rx="8" transform="matrix(-1 0 0 1 212.624 54)" fill="#C4FF62"/>
<rect width="52" height="52" rx="8" transform="matrix(-1 0 0 1 268.624 54)" fill="#464646"/>
<g clip-path="url(#clip0_7_566)">
<path d="M247.925 78.5H253.823C253.894 78.5 253.964 78.5203 254.024 78.5586C254.084 78.5968 254.132 78.6514 254.163 78.7159C254.193 78.7805 254.204 78.8523 254.195 78.9229C254.186 78.9936 254.157 79.0602 254.111 79.115L251.162 82.655C251.127 82.6972 251.083 82.7311 251.033 82.7544C250.983 82.7777 250.929 82.7898 250.874 82.7898C250.819 82.7898 250.765 82.7777 250.715 82.7544C250.665 82.7311 250.621 82.6972 250.586 82.655L247.637 79.115C247.592 79.0602 247.563 78.9936 247.553 78.9229C247.544 78.8523 247.556 78.7805 247.586 78.7159C247.616 78.6514 247.664 78.5968 247.724 78.5586C247.784 78.5203 247.854 78.5 247.925 78.5V78.5ZM231.425 81.5H237.323C237.394 81.4999 237.464 81.4796 237.524 81.4414C237.584 81.4031 237.632 81.3485 237.663 81.284C237.693 81.2195 237.704 81.1477 237.695 81.077C237.686 81.0063 237.657 80.9397 237.611 80.885L234.662 77.345C234.627 77.3028 234.583 77.2688 234.533 77.2455C234.483 77.2222 234.429 77.2101 234.374 77.2101C234.319 77.2101 234.265 77.2222 234.215 77.2455C234.165 77.2688 234.121 77.3028 234.086 77.345L231.137 80.885C231.092 80.9397 231.063 81.0063 231.053 81.077C231.044 81.1477 231.056 81.2195 231.086 81.284C231.116 81.3485 231.164 81.4031 231.224 81.4414C231.284 81.4796 231.354 81.4999 231.425 81.5V81.5Z" fill="white"/>
<path fill-rule="evenodd" clip-rule="evenodd" d="M242.624 72.5C240.296 72.5 238.214 73.5605 236.839 75.227C236.777 75.3066 236.7 75.373 236.613 75.4224C236.525 75.4717 236.429 75.5029 236.329 75.5141C236.229 75.5254 236.128 75.5164 236.031 75.4878C235.935 75.4591 235.845 75.4114 235.768 75.3474C235.69 75.2834 235.626 75.2045 235.58 75.1153C235.533 75.0261 235.505 74.9285 235.497 74.8283C235.489 74.7281 235.502 74.6273 235.533 74.5319C235.565 74.4365 235.616 74.3484 235.682 74.273C236.781 72.9433 238.238 71.957 239.88 71.4315C241.523 70.9059 243.282 70.8633 244.948 71.3085C246.614 71.7538 248.117 72.6682 249.279 73.9431C250.44 75.218 251.211 76.7997 251.5 78.5H249.974C249.628 76.8062 248.707 75.284 247.368 74.1907C246.029 73.0974 244.353 72.5002 242.624 72.5V72.5ZM235.274 81.5C235.558 82.8869 236.229 84.1652 237.208 85.1872C238.188 86.2092 239.437 86.9331 240.811 87.2754C242.184 87.6177 243.627 87.5644 244.972 87.1215C246.316 86.6787 247.508 85.8645 248.41 84.773C248.471 84.6934 248.548 84.6269 248.636 84.5776C248.723 84.5283 248.82 84.497 248.92 84.4858C249.02 84.4746 249.121 84.4836 249.217 84.5122C249.314 84.5408 249.403 84.5886 249.481 84.6526C249.558 84.7165 249.622 84.7955 249.669 84.8847C249.715 84.9738 249.743 85.0714 249.751 85.1717C249.759 85.2719 249.747 85.3727 249.715 85.4681C249.683 85.5635 249.633 85.6515 249.566 85.727C248.468 87.0567 247.011 88.043 245.368 88.5685C243.726 89.094 241.967 89.1367 240.3 88.6915C238.634 88.2462 237.131 87.3317 235.97 86.0569C234.808 84.782 234.037 83.2003 233.749 81.5H235.274Z" fill="white"/>
</g>
<defs>
<clipPath id="clip0_7_566">
<rect width="24" height="24" fill="white" transform="translate(230.624 68)"/>
</clipPath>
</defs>
</svg>
