<svg width="61" height="65" viewBox="0 0 61 65" fill="none" xmlns="http://www.w3.org/2000/svg">
<path d="M32.3867 48.0791C37.5967 47.0358 44.3333 43.2874 44.3333 33.5958C44.3333 24.7774 37.8783 18.9041 33.2367 16.2058C32.205 15.6058 31 16.3941 31 17.5858V20.6324C31 23.0358 29.99 27.4224 27.1833 29.2474C25.75 30.1791 24.2 28.7841 24.0267 27.0841L23.8833 25.6874C23.7167 24.0641 22.0633 23.0791 20.7667 24.0691C18.435 25.8441 16 28.9608 16 33.5941C16 45.4458 24.815 48.4108 29.2217 48.4108C29.4794 48.4108 29.7483 48.4025 30.0283 48.3858C27.8517 48.2008 24.3333 46.8508 24.3333 42.4841C24.3333 39.0674 26.825 36.7591 28.7183 35.6341C29.2283 35.3341 29.8233 35.7258 29.8233 36.3174V37.3008C29.8233 38.0508 30.115 39.2258 30.8067 40.0291C31.59 40.9391 32.7383 39.9858 32.83 38.7891C32.86 38.4124 33.24 38.1724 33.5667 38.3624C34.635 38.9874 36 40.3208 36 42.4841C36 45.8974 34.1183 47.4674 32.3867 48.0791Z" fill="#C4FF62"/>
<g filter="url(#filter0_f_7_616)">
<path d="M32.3867 48.0791C37.5967 47.0358 44.3333 43.2874 44.3333 33.5958C44.3333 24.7774 37.8783 18.9041 33.2367 16.2058C32.205 15.6058 31 16.3941 31 17.5858V20.6324C31 23.0358 29.99 27.4224 27.1833 29.2474C25.75 30.1791 24.2 28.7841 24.0267 27.0841L23.8833 25.6874C23.7167 24.0641 22.0633 23.0791 20.7667 24.0691C18.435 25.8441 16 28.9608 16 33.5941C16 45.4458 24.815 48.4108 29.2217 48.4108C29.4794 48.4108 29.7483 48.4024 30.0283 48.3858C27.8517 48.2008 24.3333 46.8508 24.3333 42.4841C24.3333 39.0674 26.825 36.7591 28.7183 35.6341C29.2283 35.3341 29.8233 35.7258 29.8233 36.3174V37.3008C29.8233 38.0508 30.115 39.2258 30.8067 40.0291C31.59 40.9391 32.7383 39.9858 32.83 38.7891C32.86 38.4124 33.24 38.1724 33.5667 38.3624C34.635 38.9874 36 40.3208 36 42.4841C36 45.8974 34.1183 47.4674 32.3867 48.0791Z" fill="#C4FF62" fill-opacity="0.5"/>
</g>
<defs>
<filter id="filter0_f_7_616" x="0" y="0" width="60.3333" height="64.4108" filterUnits="userSpaceOnUse" color-interpolation-filters="sRGB">
<feFlood flood-opacity="0" result="BackgroundImageFix"/>
<feBlend mode="normal" in="SourceGraphic" in2="BackgroundImageFix" result="shape"/>
<feGaussianBlur stdDeviation="8" result="effect1_foregroundBlur_7_616"/>
</filter>
</defs>
</svg>
