<svg width="24" height="24" viewBox="0 0 24 24" fill="none" xmlns="http://www.w3.org/2000/svg">
<path d="M20.2333 4C17.5571 4.0116 15.5676 4.384 14.128 5.0276C13.0537 5.5076 12.6333 5.8708 12.6333 7.1012V17.7353C12.6333 18.6041 13.7143 19.095 14.5234 18.7786C15.6704 18.3299 17.246 18.1376 19.9998 18.0914C20.8281 18.0775 21.5 17.4084 21.5 16.58V5.26667C21.5 4.56711 20.9329 4 20.2333 4ZM3.76667 4C6.4429 4.0116 8.43235 4.384 9.872 5.0276C10.9463 5.5076 11.3667 5.8708 11.3667 7.1012V17.7353C11.3667 18.6041 10.2857 19.095 9.47662 18.7786C8.32956 18.3299 6.75399 18.1376 4.00019 18.0914C3.17188 18.0775 2.5 17.4084 2.5 16.58V5.26667C2.5 4.56711 3.06711 4 3.76667 4Z" fill="currentColor"/>
</svg>
