<svg width="24" height="24" viewBox="0 0 24 24" fill="none" xmlns="http://www.w3.org/2000/svg">
<path d="M21 8.34549V8.40881C21 9.15483 21 9.5287 20.824 9.83405C20.6481 10.1394 20.3277 10.3207 19.6885 10.6842L19.0144 11.0658C19.4785 9.46278 19.634 7.74 19.691 6.26705L19.6995 6.07534L19.7012 6.03024C20.2546 6.22628 20.5656 6.37288 20.7594 6.647C21 6.98791 21 7.44073 21 8.34549ZM4 8.34549V8.40881C4 9.15483 4 9.5287 4.17595 9.83405C4.3519 10.1394 4.67235 10.3207 5.31155 10.6842L5.98645 11.0658C5.5215 9.46278 5.36595 7.74 5.309 6.26705L5.3005 6.07534L5.29965 6.03024C4.74545 6.22628 4.43435 6.37288 4.24055 6.647C4 6.98791 4 7.44159 4 8.34549Z" fill="currentColor"/>
<path fill-rule="evenodd" clip-rule="evenodd" d="M16.2205 3.30121C14.9906 3.09561 13.7462 2.99493 12.5 3.0002C10.9845 3.0002 9.73495 3.13639 8.77955 3.30121C7.8114 3.46776 7.32775 3.55103 6.92315 4.05937C6.5194 4.5677 6.54065 5.1168 6.58315 6.215C6.7302 9.98672 7.5275 14.6988 11.8625 15.1151V18.1808H10.647C10.4506 18.1809 10.2602 18.2504 10.1084 18.3776C9.95652 18.5047 9.8525 18.6816 9.814 18.8782L9.6525 19.6988H7.4C7.23092 19.6988 7.06877 19.7674 6.94922 19.8894C6.82966 20.0114 6.7625 20.1769 6.7625 20.3494C6.7625 20.522 6.82966 20.6874 6.94922 20.8094C7.06877 20.9315 7.23092 21 7.4 21H17.6C17.7691 21 17.9312 20.9315 18.0508 20.8094C18.1703 20.6874 18.2375 20.522 18.2375 20.3494C18.2375 20.1769 18.1703 20.0114 18.0508 19.8894C17.9312 19.7674 17.7691 19.6988 17.6 19.6988H15.3475L15.186 18.8782C15.1475 18.6816 15.0435 18.5047 14.8916 18.3776C14.7398 18.2504 14.5494 18.1809 14.353 18.1808H13.1375V15.1151C17.4725 14.6988 18.2707 9.98759 18.4169 6.215C18.4594 5.1168 18.4815 4.56683 18.0769 4.05937C17.6723 3.55103 17.1886 3.46776 16.2205 3.30121Z" fill="currentColor"/>
</svg>
